# xmcd
#
# Track frame offsets:
# 150
# 16179
# 29743
# 42497
# 56141
# 73351
# 85623
# 101455
# 119962
# 134403
# 150315
# 165413
# 178631
# 192957
# 205440
# 218724
# 234425
# 246970
# 261963
# 278825
# 292990
# 314792
#
# Disc length: 4379 seconds
#
#
# Revision: 0
# Processed by: cddbd v1.5PL3 Copyright (c) Steve Scherf et al.
# Submitted via: FreeRIP 2.70 
#
DISCID=50111916
DTITLE=Peter Green - Me And The Devil
DYEAR=1900
DGENRE=Blues
TTITLE0=I´m A Steady Rollin' Man
TTITLE1=From four Until late
TTITLE2=Dead Shrimp Blues
TTITLE3=Little Queen of Spades
TTITLE4=They´re Red Hot
TTITLE5=Preachin´ The Blues
TTITLE6=Hellhound On My Trail
TTITLE7=Travelling Riversida Blues
TTITLE8=Malted Milk
TTITLE9=Milkcow´s Calf Blues
TTITLE10=Drunken Hearted Man
TTITLE11=Cross road Blues
TTITLE12=Come On Into My Kitchen
TTITLE13=When You Got A Good Friend
TTITLE14=32-20 Blues
TTITLE15=Phonograph Blues
TTITLE16=Last Fair Deal Gone Down
TTITLE17=Stop Breakin´ Down Blues
TTITLE18=Terraplane Blues
TTITLE19=Walkin' Blues
TTITLE20=Love In Vain Blues
TTITLE21=Rambling On My Mind
EXTD=Peter Green and The Splinter Group
EXTT0=
EXTT1=
EXTT2=
EXTT3=
EXTT4=
EXTT5=
EXTT6=
EXTT7=
EXTT8=
EXTT9=
EXTT10=
EXTT11=
EXTT12=
EXTT13=
EXTT14=
EXTT15=
EXTT16=
EXTT17=
EXTT18=
EXTT19=
EXTT20=
EXTT21=
PLAYORDER=
